<svg width="100" height="100" viewBox="0 0 100 100" fill="none" xmlns="http://www.w3.org/2000/svg">
<g clip-path="url(#clip0_1959_3198)">
<path d="M75.8064 0H24.1935C10.8318 0 0 10.8318 0 24.1935V75.8064C0 89.1682 10.8318 100 24.1935 100H75.8064C89.1682 100 100 89.1682 100 75.8064V24.1935C100 10.8318 89.1682 0 75.8064 0Z" fill="#EAE7E4"/>
<g filter="url(#filter0_dd_1959_3198)">
<path d="M44.9846 71.74C44.9846 74.1933 45.4462 76.2787 46.3692 77.996C47.2923 79.652 48.8923 80.48 51.1692 80.48H51.7231C52.6462 80.48 53.1077 80.94 53.1077 81.86V84.62C53.1077 85.54 52.6462 86 51.7231 86H23.3846C22.4615 86 22 85.54 22 84.62V81.86C22 80.94 22.4615 80.48 23.3846 80.48H24.0308C26.3692 80.48 27.9692 79.652 28.8308 77.996C29.7538 76.2787 30.2154 74.1933 30.2154 71.74V31.26C30.2154 28.7453 29.7231 26.66 28.7385 25.004C27.8154 23.348 26.0923 22.52 23.5692 22.52H23.4769C22.5538 22.52 22.0923 22.06 22.0923 21.14V18.38C22.0923 17.46 22.5538 17 23.4769 17H57.3538C62.3385 17 66.6769 17.9813 70.3692 19.944C74.0615 21.8453 76.9231 24.36 78.9538 27.488C80.9846 30.5547 82 33.836 82 37.332C82 41.2573 81.0462 44.8147 79.1385 48.004C77.2308 51.132 74.0923 53.616 69.7231 55.456C65.3538 57.296 59.4154 58.216 51.9077 58.216H44.9846V71.74ZM50.3385 51.684C56.4923 51.684 60.9846 50.58 63.8154 48.372C66.7077 46.1027 68.1538 42.4227 68.1538 37.332C68.1538 33.1 66.8308 29.5733 64.1846 26.752C61.5385 23.9307 57.9077 22.52 53.2923 22.52H44.4308V51.684H50.3385Z" fill="#444444"/>
</g>
</g>
<defs>
<filter id="filter0_dd_1959_3198" x="15" y="17" width="74" height="69" filterUnits="userSpaceOnUse" color-interpolation-filters="sRGB">
<feFlood flood-opacity="0" result="BackgroundImageFix"/>
<feColorMatrix in="SourceAlpha" type="matrix" values="0 0 0 0 0 0 0 0 0 0 0 0 0 0 0 0 0 0 127 0" result="hardAlpha"/>
<feOffset dx="7"/>
<feComposite in2="hardAlpha" operator="out"/>
<feColorMatrix type="matrix" values="0 0 0 0 0.968627 0 0 0 0 0 0 0 0 0 0.306732 0 0 0 0.25 0"/>
<feBlend mode="normal" in2="BackgroundImageFix" result="effect1_dropShadow_1959_3198"/>
<feColorMatrix in="SourceAlpha" type="matrix" values="0 0 0 0 0 0 0 0 0 0 0 0 0 0 0 0 0 0 127 0" result="hardAlpha"/>
<feOffset dx="-7"/>
<feComposite in2="hardAlpha" operator="out"/>
<feColorMatrix type="matrix" values="0 0 0 0 0 0 0 0 0 0.866667 0 0 0 0 0.388235 0 0 0 0.33 0"/>
<feBlend mode="normal" in2="effect1_dropShadow_1959_3198" result="effect2_dropShadow_1959_3198"/>
<feBlend mode="normal" in="SourceGraphic" in2="effect2_dropShadow_1959_3198" result="shape"/>
</filter>
<clipPath id="clip0_1959_3198">
<rect width="100" height="100" fill="white"/>
</clipPath>
</defs>
</svg>
