<svg width="100" height="100" viewBox="0 0 100 100" fill="none" xmlns="http://www.w3.org/2000/svg">
<g clip-path="url(#clip0_1965_5)">
<path d="M75.8064 0H24.1935C10.8318 0 0 10.8318 0 24.1935V75.8064C0 89.1682 10.8318 100 24.1935 100H75.8064C89.1682 100 100 89.1682 100 75.8064V24.1935C100 10.8318 89.1682 0 75.8064 0Z" fill="#EAE7E4"/>
<g filter="url(#filter0_dd_1965_5)">
<path d="M15.9546 40.0662C15.6048 40.1828 14.9992 40.633 14.7401 40.8435C15.3564 36.8561 18.4394 34.7313 21.6057 32.8981C24.9387 30.9685 29.4536 30.0477 31.7429 29.7188C34.0322 29.3898 37.6458 29.1485 37.6458 29.1485C37.6458 29.1485 39.3213 27.8728 41.1187 27.1926C42.9162 26.5125 45.7069 25.8073 50.0088 26.1239C54.3107 26.4405 57.5845 28.0614 61.6193 31.3705C65.7679 34.7729 71.6006 45.9007 75.9752 50.6046C80.3497 55.3086 84.3323 58.8532 87 60.6317C85.2215 60.1871 80.865 60.4828 77.225 62.4784C73.5851 64.474 73.6184 64.696 67.9832 67.7565C62.348 70.817 53.1665 73.246 47.094 73.246C42.2361 73.246 37.5562 71.1409 35.8236 70.0883L35.9693 65.3276C35.8398 65.4571 35.5127 65.8911 35.2406 66.5906C34.9686 67.2902 34.8682 68.3719 34.852 68.8253C34.6415 67.7565 34.2787 65.0749 34.5119 62.8986C34.7451 60.7222 35.4835 58.3321 35.8236 57.4091C35.5969 57.6196 35.056 58.1864 34.7062 58.7693C34.3565 59.3523 33.929 60.0324 33.929 60.0324C33.929 60.0324 34.1913 58.0115 34.4633 56.729C34.7354 55.4465 35.4835 53.3446 35.8236 52.454L35.192 52.8426C35.3216 52.4864 35.6487 51.6476 35.9207 51.1423C36.2608 50.5108 36.7952 48.6162 36.7952 46.9159C36.7952 45.2156 35.1435 43.5639 33.8318 42.4466C32.7825 41.5528 30.0912 41.0054 28.8767 40.8435C27.225 40.5034 24.4074 40.8435 21.104 40.6006C17.8006 40.3577 16.3918 39.9205 15.9546 40.0662Z" fill="#444444"/>
</g>
<circle cx="45.1536" cy="33.5452" r="2.08312" fill="#EAE7E4"/>
</g>
<defs>
<filter id="filter0_dd_1965_5" x="5.74007" y="26.0459" width="90.2599" height="47.2001" filterUnits="userSpaceOnUse" color-interpolation-filters="sRGB">
<feFlood flood-opacity="0" result="BackgroundImageFix"/>
<feColorMatrix in="SourceAlpha" type="matrix" values="0 0 0 0 0 0 0 0 0 0 0 0 0 0 0 0 0 0 127 0" result="hardAlpha"/>
<feOffset dx="9"/>
<feComposite in2="hardAlpha" operator="out"/>
<feColorMatrix type="matrix" values="0 0 0 0 0.968627 0 0 0 0 0 0 0 0 0 0.306732 0 0 0 0.25 0"/>
<feBlend mode="normal" in2="BackgroundImageFix" result="effect1_dropShadow_1965_5"/>
<feColorMatrix in="SourceAlpha" type="matrix" values="0 0 0 0 0 0 0 0 0 0 0 0 0 0 0 0 0 0 127 0" result="hardAlpha"/>
<feOffset dx="-9"/>
<feComposite in2="hardAlpha" operator="out"/>
<feColorMatrix type="matrix" values="0 0 0 0 0 0 0 0 0 0.866667 0 0 0 0 0.388235 0 0 0 0.33 0"/>
<feBlend mode="normal" in2="effect1_dropShadow_1965_5" result="effect2_dropShadow_1965_5"/>
<feBlend mode="normal" in="SourceGraphic" in2="effect2_dropShadow_1965_5" result="shape"/>
</filter>
<clipPath id="clip0_1965_5">
<rect width="100" height="100" fill="white"/>
</clipPath>
</defs>
</svg>
