<svg width="64" height="64" viewBox="0 0 64 64" fill="none" xmlns="http://www.w3.org/2000/svg">
<rect x="1" y="1" width="62" height="62" rx="15" fill="#EAE7E4"/>
<rect x="1" y="1" width="62" height="62" rx="15" stroke="#D6C3B1" stroke-width="2"/>
<path d="M11.7653 32.0467C10.9291 32.6042 10.2919 33.2812 9.85387 34.0776C9.43573 34.874 9.22667 35.7501 9.22667 36.7059C9.22667 38.0598 9.60498 39.135 10.3616 39.9315C11.1182 40.7279 12.1436 41.1261 13.4379 41.1261C14.1148 41.1261 14.7321 41.0266 15.2896 40.8275C15.8471 40.6284 16.325 40.3596 16.7232 40.0211C17.1413 39.6627 17.4599 39.2445 17.6789 38.7667C17.9179 38.2689 18.0373 37.7313 18.0373 37.1539C18.0373 36.3176 17.7287 35.5809 17.1115 34.9437C16.4942 34.3066 15.5285 33.6993 14.2144 33.1219L11.7653 32.0467ZM17.4997 29.1197C18.8139 29.956 19.8293 30.9715 20.5461 32.1661C21.2629 33.3409 21.6213 34.5953 21.6213 35.9293C21.6213 36.9249 21.4123 37.8508 20.9941 38.7069C20.5959 39.5432 20.0284 40.27 19.2917 40.8872C18.5749 41.4845 17.7088 41.9524 16.6933 42.2909C15.6779 42.6294 14.5728 42.7987 13.3781 42.7987C12.2631 42.7987 11.2178 42.6593 10.2421 42.3805C9.2864 42.0819 8.45013 41.6836 7.73333 41.1859C7.03644 40.6682 6.48889 40.0609 6.09067 39.364C5.69244 38.6671 5.49333 37.9105 5.49333 37.0941C5.49333 35.9592 5.84178 34.9039 6.53867 33.9283C7.23556 32.9526 8.24107 32.1164 9.5552 31.4195C8.42027 30.6628 7.54418 29.7569 6.92693 28.7016C6.3296 27.6463 6.03093 26.5213 6.03093 25.3267C6.03093 23.5148 6.69796 22.0314 8.032 20.8765C8.66916 20.319 9.43573 19.9009 10.3317 19.6221C11.2476 19.3434 12.2532 19.204 13.3483 19.204C14.304 19.204 15.21 19.3135 16.0661 19.5325C16.9223 19.7516 17.6789 20.0602 18.336 20.4584C19.013 20.9363 19.5307 21.5236 19.8891 22.2205C20.2475 22.9174 20.4267 23.674 20.4267 24.4904C20.4267 25.4063 20.1977 26.2227 19.7397 26.9395C19.2818 27.6563 18.5351 28.383 17.4997 29.1197ZM15.2896 28.4925C15.867 28.0147 16.3051 27.4671 16.6037 26.8499C16.9223 26.2326 17.0816 25.5955 17.0816 24.9384C17.0816 24.361 16.982 23.8234 16.7829 23.3256C16.5838 22.8278 16.3051 22.3997 15.9467 22.0413C15.6082 21.663 15.2 21.3743 14.7221 21.1752C14.2642 20.9562 13.7564 20.8467 13.1989 20.8467C12.6613 20.8467 12.1636 20.9363 11.7056 21.1155C11.2676 21.2748 10.8793 21.5037 10.5408 21.8024C10.2023 22.0812 9.93351 22.4196 9.7344 22.8179C9.5552 23.2161 9.4656 23.6442 9.4656 24.1021C9.4656 25.5158 10.73 26.7105 13.2587 27.6861L15.2896 28.4925ZM39.2954 29.8963H25.0789V28.1043H39.2954V29.8963ZM39.2954 35.2723H25.0789V33.4803H39.2954V35.2723ZM56.2646 32.4648L43.7206 26.6408V24.58L58.0566 31.5091V33.4205L43.7206 40.3496V38.2888L56.2646 32.4648Z" fill="#444444"/>
</svg>
