<svg width="100" height="100" viewBox="0 0 100 100" fill="none" xmlns="http://www.w3.org/2000/svg">
<g filter="url(#filter0_dd_1980_71)">
<path d="M10.3658 38.7666C9.97242 38.8977 9.29136 39.4039 9 39.6406C9.69308 35.1566 13.1601 32.7671 16.7208 30.7057C20.4689 28.5357 25.5461 27.5003 28.1205 27.1303C30.695 26.7604 34.7586 26.4891 34.7586 26.4891C34.7586 26.4891 36.6428 25.0544 38.6641 24.2896C40.6855 23.5248 43.8237 22.7317 48.6614 23.0877C53.4992 23.4437 57.1808 25.2665 61.718 28.9878C66.3833 32.814 72.9425 45.3277 77.8619 50.6175C82.7813 55.9074 87.2599 59.8935 90.2599 61.8935C88.2599 61.3935 83.3608 61.726 79.2675 63.9702C75.1742 66.2144 75.2117 66.464 68.8746 69.9057C62.5375 73.3474 52.2124 76.0789 45.3836 76.0789C39.9206 76.0789 34.6579 73.7116 32.7095 72.528L32.8734 67.1742C32.7277 67.3199 32.3598 67.8079 32.0539 68.5946C31.748 69.3813 31.6351 70.5977 31.6169 71.1076C31.3801 69.9057 30.9722 66.8901 31.2344 64.4427C31.4967 61.9953 32.327 59.3075 32.7095 58.2695C32.4545 58.5062 31.8463 59.1436 31.453 59.7991C31.0596 60.4547 30.5789 61.2195 30.5789 61.2195C30.5789 61.2195 30.8739 58.9469 31.1798 57.5047C31.4857 56.0624 32.3271 53.6988 32.7095 52.6972L31.9993 53.1343C32.1449 52.7336 32.5128 51.7904 32.8187 51.2222C33.2011 50.512 33.8021 48.3815 33.8021 46.4694C33.8021 44.5573 31.9446 42.6999 30.4696 41.4434C29.2896 40.4382 26.2631 39.8227 24.8974 39.6406C23.0399 39.2582 19.8714 39.6406 16.1565 39.3675C12.4417 39.0943 10.8574 38.6027 10.3658 38.7666Z" fill="#EAE7E4"/>
</g>
<circle cx="43.2015" cy="31.4333" r="2.34257" fill="#444444"/>
<defs>
<filter id="filter0_dd_1980_71" x="2" y="23" width="95.2599" height="53.0789" filterUnits="userSpaceOnUse" color-interpolation-filters="sRGB">
<feFlood flood-opacity="0" result="BackgroundImageFix"/>
<feColorMatrix in="SourceAlpha" type="matrix" values="0 0 0 0 0 0 0 0 0 0 0 0 0 0 0 0 0 0 127 0" result="hardAlpha"/>
<feOffset dx="7"/>
<feComposite in2="hardAlpha" operator="out"/>
<feColorMatrix type="matrix" values="0 0 0 0 0.968627 0 0 0 0 0 0 0 0 0 0.306732 0 0 0 0.25 0"/>
<feBlend mode="normal" in2="BackgroundImageFix" result="effect1_dropShadow_1980_71"/>
<feColorMatrix in="SourceAlpha" type="matrix" values="0 0 0 0 0 0 0 0 0 0 0 0 0 0 0 0 0 0 127 0" result="hardAlpha"/>
<feOffset dx="-7"/>
<feComposite in2="hardAlpha" operator="out"/>
<feColorMatrix type="matrix" values="0 0 0 0 0 0 0 0 0 0.866667 0 0 0 0 0.388235 0 0 0 0.33 0"/>
<feBlend mode="normal" in2="effect1_dropShadow_1980_71" result="effect2_dropShadow_1980_71"/>
<feBlend mode="normal" in="SourceGraphic" in2="effect2_dropShadow_1980_71" result="shape"/>
</filter>
</defs>
</svg>
