<svg width="264" height="83" viewBox="0 0 264 83" fill="none" xmlns="http://www.w3.org/2000/svg">
<g filter="url(#filter0_dd_1960_71)">
<path d="M28.9846 54.74C28.9846 57.1933 29.4462 59.2787 30.3692 60.996C31.2923 62.652 32.8923 63.48 35.1692 63.48H35.7231C36.6462 63.48 37.1077 63.94 37.1077 64.86V67.62C37.1077 68.54 36.6462 69 35.7231 69H7.38462C6.46154 69 6 68.54 6 67.62V64.86C6 63.94 6.46154 63.48 7.38462 63.48H8.03077C10.3692 63.48 11.9692 62.652 12.8308 60.996C13.7538 59.2787 14.2154 57.1933 14.2154 54.74V14.26C14.2154 11.7453 13.7231 9.66 12.7385 8.004C11.8154 6.348 10.0923 5.52 7.56923 5.52H7.47692C6.55385 5.52 6.09231 5.06 6.09231 4.14V1.38C6.09231 0.460001 6.55385 0 7.47692 0H41.3538C46.3385 0 50.6769 0.981332 54.3692 2.944C58.0615 4.84533 60.9231 7.36 62.9538 10.488C64.9846 13.5547 66 16.836 66 20.332C66 24.2573 65.0462 27.8147 63.1385 31.004C61.2308 34.132 58.0923 36.616 53.7231 38.456C49.3538 40.296 43.4154 41.216 35.9077 41.216H28.9846V54.74ZM34.3385 34.684C40.4923 34.684 44.9846 33.58 47.8154 31.372C50.7077 29.1027 52.1538 25.4227 52.1538 20.332C52.1538 16.1 50.8308 12.5733 48.1846 9.752C45.5385 6.93067 41.9077 5.52 37.2923 5.52H28.4308V34.684H34.3385Z" fill="#444444"/>
</g>
<path d="M72.678 49.506C74.122 49.506 75.452 49.7973 76.668 50.38C77.9093 50.9373 78.9733 51.71 79.86 52.698C80.7467 53.6607 81.4307 54.75 81.912 55.966C82.4187 57.1567 82.672 58.398 82.672 59.69C82.672 61.5647 82.2287 63.2493 81.342 64.744C80.4553 66.2133 79.29 67.3787 77.846 68.24C76.402 69.076 74.8313 69.494 73.134 69.494C71.69 69.494 70.36 69.2153 69.144 68.658C67.928 68.1007 66.864 67.3533 65.952 66.416C65.0653 65.4533 64.3687 64.364 63.862 63.148C63.3807 61.9067 63.14 60.6147 63.14 59.272C63.14 57.4227 63.5707 55.7633 64.432 54.294C65.2933 52.8247 66.446 51.6593 67.89 50.798C69.334 49.9367 70.93 49.506 72.678 49.506ZM74.312 66.416C74.7933 66.416 75.3253 66.2893 75.908 66.036C76.4907 65.7827 76.9973 65.3393 77.428 64.706C77.884 64.0727 78.112 63.1987 78.112 62.084C78.112 61.1973 77.9347 60.222 77.58 59.158C77.2507 58.0687 76.782 57.03 76.174 56.042C75.5913 55.0287 74.8947 54.2053 74.084 53.572C73.2987 52.9133 72.4373 52.584 71.5 52.584C70.4613 52.584 69.562 52.9767 68.802 53.762C68.042 54.522 67.662 55.5733 67.662 56.916C67.662 57.7773 67.8267 58.7527 68.156 59.842C68.5107 60.9313 68.9793 61.9827 69.562 62.996C70.17 63.984 70.8793 64.8073 71.69 65.466C72.5007 66.0993 73.3747 66.416 74.312 66.416ZM90.4703 62.198C90.901 63.262 91.585 64.212 92.5223 65.048C93.485 65.884 94.701 66.302 96.1703 66.302C96.981 66.302 97.8296 66.074 98.7163 65.618C99.603 65.162 100.376 64.4527 101.034 63.49C101.11 63.3633 101.212 63.3 101.338 63.3C101.465 63.3 101.592 63.338 101.718 63.414C101.87 63.49 102.25 63.7053 102.858 64.06C102.96 64.136 103.01 64.2373 103.01 64.364C103.01 64.5413 102.934 64.7567 102.782 65.01C102.073 66.3273 101.11 67.404 99.8943 68.24C98.6783 69.076 97.095 69.494 95.1443 69.494C93.0416 69.494 91.2303 69.0253 89.7103 68.088C88.1903 67.1507 87.0123 65.9093 86.1763 64.364C85.3656 62.8187 84.9603 61.134 84.9603 59.31C84.9603 57.562 85.2136 56.0673 85.7203 54.826C86.2523 53.5593 86.949 52.546 87.8103 51.786C88.6716 51.0007 89.6343 50.4307 90.6983 50.076C91.7876 49.696 92.8896 49.506 94.0043 49.506C95.271 49.506 96.3856 49.7593 97.3483 50.266C98.311 50.7473 99.1216 51.368 99.7803 52.128C100.464 52.888 100.971 53.6987 101.3 54.56C101.655 55.396 101.832 56.1813 101.832 56.916C101.832 57.1187 101.718 57.2707 101.49 57.372L90.4703 62.198ZM96.1323 56.764C96.1323 55.548 95.841 54.5473 95.2583 53.762C94.6756 52.9767 93.941 52.584 93.0543 52.584C92.0156 52.584 91.1923 53.002 90.5843 53.838C89.9763 54.6487 89.6723 55.6747 89.6723 56.916C89.6723 57.296 89.685 57.7647 89.7103 58.322C89.761 58.8793 89.8623 59.386 90.0143 59.842L96.1323 56.764ZM118.463 66.264C118.539 66.3653 118.577 66.4793 118.577 66.606C118.577 66.758 118.476 66.8973 118.273 67.024L117.133 67.746C116.449 68.1767 115.626 68.582 114.663 68.962C113.7 69.3167 112.738 69.494 111.775 69.494C111.015 69.494 110.293 69.3167 109.609 68.962C108.95 68.6073 108.418 68.012 108.013 67.176C107.608 66.3147 107.405 65.1367 107.405 63.642V56.612C107.405 55.928 107.367 55.2567 107.291 54.598C107.215 53.914 106.974 53.3567 106.569 52.926C106.189 52.4953 105.543 52.28 104.631 52.28C104.251 52.28 104.061 52.09 104.061 51.71V50.57C104.061 50.19 104.251 50 104.631 50H107.405V47.454C107.405 47.1247 107.519 46.8967 107.747 46.77C108.304 46.466 109.039 46.048 109.951 45.516C110.863 44.9587 111.674 44.3253 112.383 43.616C112.434 43.5653 112.497 43.54 112.573 43.54H112.649C112.7 43.54 112.725 43.578 112.725 43.654V50H117.817C118.197 50 118.387 50.19 118.387 50.57V52.204C118.387 52.584 118.197 52.774 117.817 52.774H112.725V63.642C112.725 64.63 112.877 65.314 113.181 65.694C113.485 66.0487 113.865 66.226 114.321 66.226C114.752 66.226 115.208 66.112 115.689 65.884C116.17 65.6307 116.614 65.3773 117.019 65.124C117.196 65.0227 117.336 64.972 117.437 64.972C117.589 64.972 117.728 65.0733 117.855 65.276L118.463 66.264ZM128.149 53.99C128.833 52.5207 129.783 51.406 130.999 50.646C132.215 49.886 133.494 49.506 134.837 49.506C136.028 49.506 137.041 49.8353 137.877 50.494C138.713 51.1527 139.131 52.128 139.131 53.42C139.131 53.9773 139.08 54.4713 138.979 54.902C138.878 55.3327 138.599 55.6493 138.143 55.852L134.571 57.296C134.419 57.3467 134.305 57.372 134.229 57.372C134.001 57.372 133.887 57.258 133.887 57.03C133.887 56.954 133.912 56.84 133.963 56.688C134.115 56.3333 134.204 55.9913 134.229 55.662C134.28 55.3327 134.305 55.0413 134.305 54.788C134.305 54.104 134.128 53.61 133.773 53.306C133.444 52.9767 133.026 52.812 132.519 52.812C131.936 52.812 131.392 52.9893 130.885 53.344C130.378 53.6987 129.935 54.1293 129.555 54.636C129.175 55.1427 128.896 55.6367 128.719 56.118V63.11C128.719 64.1233 128.947 64.9847 129.403 65.694C129.859 66.378 130.556 66.72 131.493 66.72H131.569C131.949 66.72 132.139 66.91 132.139 67.29V68.43C132.139 68.81 131.949 69 131.569 69H120.511C120.131 69 119.941 68.81 119.941 68.43V67.29C119.941 66.91 120.131 66.72 120.511 66.72H120.587C121.524 66.72 122.221 66.378 122.677 65.694C123.133 64.9847 123.361 64.1233 123.361 63.11V58.322C123.361 57.638 123.31 56.9793 123.209 56.346C123.133 55.7127 122.943 55.1807 122.639 54.75C122.335 54.294 121.828 54.028 121.119 53.952C120.815 53.9267 120.663 53.762 120.663 53.458V52.166C120.663 51.9127 120.853 51.748 121.233 51.672C123.032 51.3933 124.602 50.95 125.945 50.342C127.313 49.734 128.238 49.2527 128.719 48.898C128.795 48.8473 128.858 48.822 128.909 48.822H128.985C129.036 48.822 129.061 48.8473 129.061 48.898C129.061 48.9233 129.023 49.1133 128.947 49.468C128.896 49.8227 128.82 50.2787 128.719 50.836C128.643 51.368 128.542 51.9253 128.415 52.508C128.314 53.0653 128.225 53.5593 128.149 53.99ZM161.318 50C161.698 50 161.888 50.19 161.888 50.57V51.71C161.888 52.09 161.698 52.28 161.318 52.28H160.786C160.381 52.28 160.026 52.4447 159.722 52.774C159.418 53.078 159.038 53.6987 158.582 54.636L147.562 76.828C147.41 77.1573 147.157 77.246 146.802 77.094L144.864 76.106C144.51 75.954 144.408 75.7007 144.56 75.346L148.816 66.226L143.23 54.674C142.774 53.7367 142.42 53.1033 142.166 52.774C141.913 52.4447 141.533 52.28 141.026 52.28H140.95C140.57 52.28 140.38 52.09 140.38 51.71V50.57C140.38 50.19 140.57 50 140.95 50H149.728C150.108 50 150.298 50.19 150.298 50.57V51.71C150.298 52.09 150.108 52.28 149.728 52.28H149.652C148.842 52.28 148.436 52.6093 148.436 53.268C148.436 53.5973 148.525 53.99 148.702 54.446C148.88 54.8767 149.082 55.3453 149.31 55.852L151.856 61.4L154.592 55.776C154.871 55.244 155.099 54.75 155.276 54.294C155.454 53.8127 155.542 53.4073 155.542 53.078C155.542 52.546 155.251 52.28 154.668 52.28H153.984C153.604 52.28 153.414 52.09 153.414 51.71V50.57C153.414 50.19 153.604 50 153.984 50H161.318ZM199.361 59.88C199.513 59.956 199.64 60.032 199.741 60.108C199.842 60.1587 199.893 60.2473 199.893 60.374C199.893 60.4247 199.868 60.526 199.817 60.678C199.412 61.666 198.854 62.6793 198.145 63.718C197.461 64.7313 196.6 65.6813 195.561 66.568C194.548 67.4547 193.332 68.164 191.913 68.696C190.52 69.228 188.911 69.494 187.087 69.494C184.047 69.494 181.476 68.8607 179.373 67.594C177.27 66.3273 175.674 64.6047 174.585 62.426C173.496 60.222 172.951 57.7647 172.951 55.054C172.951 53.7873 173.09 52.47 173.369 51.102C173.648 49.7087 174.104 48.3533 174.737 47.036C175.37 45.7187 176.219 44.5407 177.283 43.502C178.372 42.438 179.715 41.602 181.311 40.994C182.907 40.3607 184.794 40.044 186.973 40.044C188.797 40.044 190.368 40.272 191.685 40.728C193.002 41.184 194.104 41.7667 194.991 42.476C195.878 43.16 196.587 43.882 197.119 44.642C197.651 45.402 198.031 46.1113 198.259 46.77C198.487 47.4287 198.601 47.9227 198.601 48.252C198.601 48.6067 198.386 48.86 197.955 49.012L193.319 50.646C193.066 50.7473 192.838 50.798 192.635 50.798C192.331 50.798 192.179 50.6713 192.179 50.418C192.179 50.3673 192.192 50.1773 192.217 49.848C192.242 49.5187 192.255 49.2907 192.255 49.164C192.255 48.252 192.09 47.3273 191.761 46.39C191.432 45.4527 190.862 44.6673 190.051 44.034C189.24 43.3753 188.113 43.046 186.669 43.046C185.301 43.046 184.148 43.3753 183.211 44.034C182.299 44.6927 181.564 45.554 181.007 46.618C180.45 47.682 180.044 48.8093 179.791 50C179.563 51.1907 179.449 52.318 179.449 53.382C179.449 55.8393 179.74 58.0053 180.323 59.88C180.906 61.7293 181.805 63.186 183.021 64.25C184.262 65.2887 185.82 65.808 187.695 65.808C189.57 65.808 191.102 65.4787 192.293 64.82C193.509 64.1613 194.472 63.3633 195.181 62.426C195.916 61.4633 196.486 60.526 196.891 59.614C197.043 59.2847 197.258 59.12 197.537 59.12C197.664 59.12 197.828 59.1707 198.031 59.272L199.361 59.88ZM220.709 61.97C220.709 62.882 220.848 63.7053 221.127 64.44C221.406 65.1493 222.014 65.5673 222.951 65.694C223.255 65.7193 223.407 65.884 223.407 66.188V67.442C223.407 67.7967 223.217 67.974 222.837 67.974C221.596 67.974 220.557 68.05 219.721 68.202C218.91 68.3287 218.201 68.506 217.593 68.734C217.01 68.9367 216.428 69.1647 215.845 69.418C215.744 69.4687 215.655 69.494 215.579 69.494H215.465C215.414 69.494 215.389 69.4433 215.389 69.342C215.389 69.2407 215.414 69 215.465 68.62C215.516 68.2147 215.566 67.7713 215.617 67.29C215.693 66.7833 215.756 66.3527 215.807 65.998C215.68 66.3273 215.402 66.7707 214.971 67.328C214.566 67.8853 213.958 68.392 213.147 68.848C212.362 69.2787 211.323 69.494 210.031 69.494C209.17 69.494 208.245 69.3167 207.257 68.962C206.294 68.6073 205.382 68.0373 204.521 67.252C203.66 66.4667 202.95 65.4407 202.393 64.174C201.861 62.882 201.595 61.3113 201.595 59.462C201.595 57.106 202.013 55.206 202.849 53.762C203.71 52.2927 204.812 51.216 206.155 50.532C207.523 49.848 208.967 49.506 210.487 49.506C211.728 49.506 212.868 49.696 213.907 50.076C214.946 50.456 215.858 51.0007 216.643 51.71C217.302 51.4313 217.859 51.178 218.315 50.95C218.796 50.6967 219.202 50.4433 219.531 50.19C219.658 50.0887 219.784 49.9873 219.911 49.886C220.063 49.7847 220.228 49.6833 220.405 49.582C220.481 49.5313 220.544 49.506 220.595 49.506H220.633C220.684 49.506 220.709 49.5313 220.709 49.582V61.97ZM215.389 56.004C215.313 55.4973 215.123 54.94 214.819 54.332C214.54 53.6987 214.11 53.1667 213.527 52.736C212.944 52.28 212.159 52.052 211.171 52.052C209.955 52.052 209.005 52.356 208.321 52.964C207.637 53.5467 207.156 54.3067 206.877 55.244C206.624 56.1813 206.497 57.182 206.497 58.246C206.497 60.678 206.978 62.6033 207.941 64.022C208.929 65.4407 210.196 66.15 211.741 66.15C212.653 66.15 213.362 65.96 213.869 65.58C214.401 65.1747 214.781 64.7693 215.009 64.364C215.237 63.9587 215.364 63.718 215.389 63.642V56.004ZM262.656 66.72C263.036 66.72 263.226 66.91 263.226 67.29V68.43C263.226 68.81 263.036 69 262.656 69H251.94C251.56 69 251.37 68.81 251.37 68.43V67.29C251.37 66.91 251.56 66.72 251.94 66.72H252.13C252.94 66.72 253.472 66.4287 253.726 65.846C253.979 65.238 254.106 64.326 254.106 63.11V56.612C254.106 55.928 254.042 55.3073 253.916 54.75C253.814 54.1673 253.561 53.7113 253.156 53.382C252.776 53.0273 252.18 52.85 251.37 52.85C250.28 52.85 249.318 53.192 248.482 53.876C247.671 54.56 246.987 55.4213 246.43 56.46V63.11C246.43 64.5033 246.645 65.4533 247.076 65.96C247.532 66.4667 248.127 66.72 248.862 66.72H249.166C249.546 66.72 249.736 66.91 249.736 67.29V68.43C249.736 68.81 249.546 69 249.166 69H238.83C238.45 69 238.26 68.81 238.26 68.43V67.29C238.26 66.91 238.45 66.72 238.83 66.72H239.096C239.628 66.72 240.096 66.4667 240.502 65.96C240.907 65.4533 241.11 64.5033 241.11 63.11V56.612C241.11 55.396 240.945 54.4713 240.616 53.838C240.312 53.1793 239.564 52.85 238.374 52.85C237.74 52.85 237.107 53.0147 236.474 53.344C235.84 53.648 235.283 54.0533 234.802 54.56C234.32 55.0413 233.966 55.5607 233.738 56.118V63.11C233.738 64.1233 233.953 64.9847 234.384 65.694C234.84 66.378 235.435 66.72 236.17 66.72H236.246C236.626 66.72 236.816 66.91 236.816 67.29V68.43C236.816 68.81 236.626 69 236.246 69H225.568C225.188 69 224.998 68.81 224.998 68.43V67.29C224.998 66.91 225.188 66.72 225.568 66.72H225.644C226.581 66.72 227.278 66.378 227.734 65.694C228.19 64.9847 228.418 64.1233 228.418 63.11V58.322C228.418 57.638 228.367 56.9793 228.266 56.346C228.19 55.7127 227.987 55.1807 227.658 54.75C227.354 54.294 226.847 54.028 226.138 53.952C225.859 53.9267 225.72 53.762 225.72 53.458V52.166C225.72 51.9127 225.897 51.748 226.252 51.672C228.076 51.3933 229.634 50.9627 230.926 50.38C232.243 49.7973 233.155 49.3287 233.662 48.974C233.788 48.8727 233.89 48.822 233.966 48.822H234.004C234.054 48.822 234.08 48.8473 234.08 48.898C234.08 48.9487 234.067 49.05 234.042 49.202L233.396 53.876C233.75 53.2933 234.219 52.6727 234.802 52.014C235.384 51.33 236.106 50.7473 236.968 50.266C237.829 49.7593 238.83 49.506 239.97 49.506C241.844 49.506 243.238 49.8607 244.15 50.57C245.062 51.254 245.682 52.1407 246.012 53.23C246.873 52.1153 247.874 51.216 249.014 50.532C250.179 49.848 251.509 49.506 253.004 49.506C254.372 49.506 255.474 49.7213 256.31 50.152C257.171 50.5573 257.83 51.1147 258.286 51.824C258.742 52.508 259.046 53.2933 259.198 54.18C259.375 55.0413 259.464 55.928 259.464 56.84V63.11C259.464 64.1233 259.692 64.9847 260.148 65.694C260.629 66.378 261.326 66.72 262.238 66.72H262.656Z" fill="#444444"/>
<defs>
<filter id="filter0_dd_1960_71" x="0" y="0" width="72" height="69" filterUnits="userSpaceOnUse" color-interpolation-filters="sRGB">
<feFlood flood-opacity="0" result="BackgroundImageFix"/>
<feColorMatrix in="SourceAlpha" type="matrix" values="0 0 0 0 0 0 0 0 0 0 0 0 0 0 0 0 0 0 127 0" result="hardAlpha"/>
<feOffset dx="6"/>
<feComposite in2="hardAlpha" operator="out"/>
<feColorMatrix type="matrix" values="0 0 0 0 0.968627 0 0 0 0 0 0 0 0 0 0.306732 0 0 0 0.25 0"/>
<feBlend mode="normal" in2="BackgroundImageFix" result="effect1_dropShadow_1960_71"/>
<feColorMatrix in="SourceAlpha" type="matrix" values="0 0 0 0 0 0 0 0 0 0 0 0 0 0 0 0 0 0 127 0" result="hardAlpha"/>
<feOffset dx="-6"/>
<feComposite in2="hardAlpha" operator="out"/>
<feColorMatrix type="matrix" values="0 0 0 0 0 0 0 0 0 0.866667 0 0 0 0 0.388235 0 0 0 0.33 0"/>
<feBlend mode="normal" in2="effect1_dropShadow_1960_71" result="effect2_dropShadow_1960_71"/>
<feBlend mode="normal" in="SourceGraphic" in2="effect2_dropShadow_1960_71" result="shape"/>
</filter>
</defs>
</svg>
