<svg width="347" height="54" viewBox="0 0 347 54" fill="none" xmlns="http://www.w3.org/2000/svg">
<g filter="url(#filter0_dd_1980_75)">
<path d="M8.36575 16.2271C7.97242 16.3582 7.29136 16.8645 7 17.1012C7.69308 12.6171 11.1601 10.2277 14.7208 8.16625C18.4689 5.99629 23.5461 4.96085 26.1205 4.59092C28.695 4.22098 32.7586 3.94962 32.7586 3.94962C32.7586 3.94962 34.6428 2.51497 36.6641 1.75015C38.6855 0.98533 41.8237 0.192302 46.6614 0.548289C51.4992 0.904276 55.1808 2.7271 59.718 6.44834C64.3833 10.2746 70.9425 22.7883 75.8619 28.0781C80.7813 33.3679 85.2599 37.3541 88.2599 39.3541C86.2599 38.8541 81.3608 39.1866 77.2675 41.4308C73.1742 43.675 73.2117 43.9246 66.8746 47.3663C60.5375 50.808 50.2124 53.5395 43.3836 53.5395C37.9206 53.5395 32.6579 51.1722 30.7095 49.9885L30.8734 44.6348C30.7277 44.7805 30.3598 45.2685 30.0539 46.0552C29.748 46.8418 29.6351 48.0583 29.6169 48.5681C29.3801 47.3663 28.9722 44.3507 29.2344 41.9033C29.4967 39.4558 30.327 36.768 30.7095 35.7301C30.4545 35.9668 29.8463 36.6042 29.453 37.2597C29.0596 37.9153 28.5789 38.6801 28.5789 38.6801C28.5789 38.6801 28.8739 36.4075 29.1798 34.9652C29.4857 33.523 30.3271 31.1594 30.7095 30.1578L29.9993 30.5948C30.1449 30.1942 30.5128 29.2509 30.8187 28.6828C31.2011 27.9726 31.8021 25.842 31.8021 23.93C31.8021 22.0179 29.9446 20.1605 28.4696 18.904C27.2896 17.8988 24.2631 17.2833 22.8974 17.1012C21.0399 16.7188 17.8714 17.1012 14.1565 16.8281C10.4417 16.5549 8.85742 16.0632 8.36575 16.2271Z" fill="#EAE7E4"/>
</g>
<circle cx="41.2015" cy="8.89384" r="2.34257" fill="#444444"/>
<path d="M129.862 34.11C129.862 35.1233 130.052 35.9847 130.432 36.694C130.812 37.378 131.471 37.72 132.408 37.72H132.636C133.016 37.72 133.206 37.91 133.206 38.29V39.43C133.206 39.81 133.016 40 132.636 40H120.97C120.59 40 120.4 39.81 120.4 39.43V38.29C120.4 37.91 120.59 37.72 120.97 37.72H121.236C122.199 37.72 122.857 37.378 123.212 36.694C123.592 35.9847 123.782 35.1233 123.782 34.11V17.39C123.782 16.3513 123.579 15.49 123.174 14.806C122.794 14.122 122.085 13.78 121.046 13.78H121.008C120.628 13.78 120.438 13.59 120.438 13.21V12.07C120.438 11.69 120.628 11.5 121.008 11.5H134.954C137.006 11.5 138.792 11.9053 140.312 12.716C141.832 13.5013 143.01 14.54 143.846 15.832C144.682 17.0987 145.1 18.454 145.1 19.898C145.1 21.5193 144.707 22.9887 143.922 24.306C143.137 25.598 141.845 26.624 140.046 27.384C138.247 28.144 135.803 28.524 132.712 28.524H129.862V34.11ZM132.066 25.826C134.599 25.826 136.449 25.37 137.614 24.458C138.805 23.5207 139.4 22.0007 139.4 19.898C139.4 18.15 138.855 16.6933 137.766 15.528C136.677 14.3627 135.182 13.78 133.282 13.78H129.634V25.826H132.066ZM155.024 20.506C156.468 20.506 157.798 20.7973 159.014 21.38C160.255 21.9373 161.319 22.71 162.206 23.698C163.093 24.6607 163.777 25.75 164.258 26.966C164.765 28.1567 165.018 29.398 165.018 30.69C165.018 32.5647 164.575 34.2493 163.688 35.744C162.801 37.2133 161.636 38.3787 160.192 39.24C158.748 40.076 157.177 40.494 155.48 40.494C154.036 40.494 152.706 40.2153 151.49 39.658C150.274 39.1007 149.21 38.3533 148.298 37.416C147.411 36.4533 146.715 35.364 146.208 34.148C145.727 32.9067 145.486 31.6147 145.486 30.272C145.486 28.4227 145.917 26.7633 146.778 25.294C147.639 23.8247 148.792 22.6593 150.236 21.798C151.68 20.9367 153.276 20.506 155.024 20.506ZM156.658 37.416C157.139 37.416 157.671 37.2893 158.254 37.036C158.837 36.7827 159.343 36.3393 159.774 35.706C160.23 35.0727 160.458 34.1987 160.458 33.084C160.458 32.1973 160.281 31.222 159.926 30.158C159.597 29.0687 159.128 28.03 158.52 27.042C157.937 26.0287 157.241 25.2053 156.43 24.572C155.645 23.9133 154.783 23.584 153.846 23.584C152.807 23.584 151.908 23.9767 151.148 24.762C150.388 25.522 150.008 26.5733 150.008 27.916C150.008 28.7773 150.173 29.7527 150.502 30.842C150.857 31.9313 151.325 32.9827 151.908 33.996C152.516 34.984 153.225 35.8073 154.036 36.466C154.847 37.0993 155.721 37.416 156.658 37.416ZM172.816 33.198C173.247 34.262 173.931 35.212 174.868 36.048C175.831 36.884 177.047 37.302 178.516 37.302C179.327 37.302 180.176 37.074 181.062 36.618C181.949 36.162 182.722 35.4527 183.38 34.49C183.456 34.3633 183.558 34.3 183.684 34.3C183.811 34.3 183.938 34.338 184.064 34.414C184.216 34.49 184.596 34.7053 185.204 35.06C185.306 35.136 185.356 35.2373 185.356 35.364C185.356 35.5413 185.28 35.7567 185.128 36.01C184.419 37.3273 183.456 38.404 182.24 39.24C181.024 40.076 179.441 40.494 177.49 40.494C175.388 40.494 173.576 40.0253 172.056 39.088C170.536 38.1507 169.358 36.9093 168.522 35.364C167.712 33.8187 167.306 32.134 167.306 30.31C167.306 28.562 167.56 27.0673 168.066 25.826C168.598 24.5593 169.295 23.546 170.156 22.786C171.018 22.0007 171.98 21.4307 173.044 21.076C174.134 20.696 175.236 20.506 176.35 20.506C177.617 20.506 178.732 20.7593 179.694 21.266C180.657 21.7473 181.468 22.368 182.126 23.128C182.81 23.888 183.317 24.6987 183.646 25.56C184.001 26.396 184.178 27.1813 184.178 27.916C184.178 28.1187 184.064 28.2707 183.836 28.372L172.816 33.198ZM178.478 27.764C178.478 26.548 178.187 25.5473 177.604 24.762C177.022 23.9767 176.287 23.584 175.4 23.584C174.362 23.584 173.538 24.002 172.93 24.838C172.322 25.6487 172.018 26.6747 172.018 27.916C172.018 28.296 172.031 28.7647 172.056 29.322C172.107 29.8793 172.208 30.386 172.36 30.842L178.478 27.764ZM200.809 37.264C200.885 37.3653 200.923 37.4793 200.923 37.606C200.923 37.758 200.822 37.8973 200.619 38.024L199.479 38.746C198.795 39.1767 197.972 39.582 197.009 39.962C196.046 40.3167 195.084 40.494 194.121 40.494C193.361 40.494 192.639 40.3167 191.955 39.962C191.296 39.6073 190.764 39.012 190.359 38.176C189.954 37.3147 189.751 36.1367 189.751 34.642V27.612C189.751 26.928 189.713 26.2567 189.637 25.598C189.561 24.914 189.32 24.3567 188.915 23.926C188.535 23.4953 187.889 23.28 186.977 23.28C186.597 23.28 186.407 23.09 186.407 22.71V21.57C186.407 21.19 186.597 21 186.977 21H189.751V18.454C189.751 18.1247 189.865 17.8967 190.093 17.77C190.65 17.466 191.385 17.048 192.297 16.516C193.209 15.9587 194.02 15.3253 194.729 14.616C194.78 14.5653 194.843 14.54 194.919 14.54H194.995C195.046 14.54 195.071 14.578 195.071 14.654V21H200.163C200.543 21 200.733 21.19 200.733 21.57V23.204C200.733 23.584 200.543 23.774 200.163 23.774H195.071V34.642C195.071 35.63 195.223 36.314 195.527 36.694C195.831 37.0487 196.211 37.226 196.667 37.226C197.098 37.226 197.554 37.112 198.035 36.884C198.516 36.6307 198.96 36.3773 199.365 36.124C199.542 36.0227 199.682 35.972 199.783 35.972C199.935 35.972 200.074 36.0733 200.201 36.276L200.809 37.264ZM210.495 24.99C211.179 23.5207 212.129 22.406 213.345 21.646C214.561 20.886 215.84 20.506 217.183 20.506C218.374 20.506 219.387 20.8353 220.223 21.494C221.059 22.1527 221.477 23.128 221.477 24.42C221.477 24.9773 221.426 25.4713 221.325 25.902C221.224 26.3327 220.945 26.6493 220.489 26.852L216.917 28.296C216.765 28.3467 216.651 28.372 216.575 28.372C216.347 28.372 216.233 28.258 216.233 28.03C216.233 27.954 216.258 27.84 216.309 27.688C216.461 27.3333 216.55 26.9913 216.575 26.662C216.626 26.3327 216.651 26.0413 216.651 25.788C216.651 25.104 216.474 24.61 216.119 24.306C215.79 23.9767 215.372 23.812 214.865 23.812C214.282 23.812 213.738 23.9893 213.231 24.344C212.724 24.6987 212.281 25.1293 211.901 25.636C211.521 26.1427 211.242 26.6367 211.065 27.118V34.11C211.065 35.1233 211.293 35.9847 211.749 36.694C212.205 37.378 212.902 37.72 213.839 37.72H213.915C214.295 37.72 214.485 37.91 214.485 38.29V39.43C214.485 39.81 214.295 40 213.915 40H202.857C202.477 40 202.287 39.81 202.287 39.43V38.29C202.287 37.91 202.477 37.72 202.857 37.72H202.933C203.87 37.72 204.567 37.378 205.023 36.694C205.479 35.9847 205.707 35.1233 205.707 34.11V29.322C205.707 28.638 205.656 27.9793 205.555 27.346C205.479 26.7127 205.289 26.1807 204.985 25.75C204.681 25.294 204.174 25.028 203.465 24.952C203.161 24.9267 203.009 24.762 203.009 24.458V23.166C203.009 22.9127 203.199 22.748 203.579 22.672C205.378 22.3933 206.948 21.95 208.291 21.342C209.659 20.734 210.584 20.2527 211.065 19.898C211.141 19.8473 211.204 19.822 211.255 19.822H211.331C211.382 19.822 211.407 19.8473 211.407 19.898C211.407 19.9233 211.369 20.1133 211.293 20.468C211.242 20.8227 211.166 21.2787 211.065 21.836C210.989 22.368 210.888 22.9253 210.761 23.508C210.66 24.0653 210.571 24.5593 210.495 24.99ZM243.664 21C244.044 21 244.234 21.19 244.234 21.57V22.71C244.234 23.09 244.044 23.28 243.664 23.28H243.132C242.727 23.28 242.372 23.4447 242.068 23.774C241.764 24.078 241.384 24.6987 240.928 25.636L229.908 47.828C229.756 48.1573 229.503 48.246 229.148 48.094L227.21 47.106C226.856 46.954 226.754 46.7007 226.906 46.346L231.162 37.226L225.576 25.674C225.12 24.7367 224.766 24.1033 224.512 23.774C224.259 23.4447 223.879 23.28 223.372 23.28H223.296C222.916 23.28 222.726 23.09 222.726 22.71V21.57C222.726 21.19 222.916 21 223.296 21H232.074C232.454 21 232.644 21.19 232.644 21.57V22.71C232.644 23.09 232.454 23.28 232.074 23.28H231.998C231.188 23.28 230.782 23.6093 230.782 24.268C230.782 24.5973 230.871 24.99 231.048 25.446C231.226 25.8767 231.428 26.3453 231.656 26.852L234.202 32.4L236.938 26.776C237.217 26.244 237.445 25.75 237.622 25.294C237.8 24.8127 237.888 24.4073 237.888 24.078C237.888 23.546 237.597 23.28 237.014 23.28H236.33C235.95 23.28 235.76 23.09 235.76 22.71V21.57C235.76 21.19 235.95 21 236.33 21H243.664ZM281.707 30.88C281.859 30.956 281.986 31.032 282.087 31.108C282.188 31.1587 282.239 31.2473 282.239 31.374C282.239 31.4247 282.214 31.526 282.163 31.678C281.758 32.666 281.2 33.6793 280.491 34.718C279.807 35.7313 278.946 36.6813 277.907 37.568C276.894 38.4547 275.678 39.164 274.259 39.696C272.866 40.228 271.257 40.494 269.433 40.494C266.393 40.494 263.822 39.8607 261.719 38.594C259.616 37.3273 258.02 35.6047 256.931 33.426C255.842 31.222 255.297 28.7647 255.297 26.054C255.297 24.7873 255.436 23.47 255.715 22.102C255.994 20.7087 256.45 19.3533 257.083 18.036C257.716 16.7187 258.565 15.5407 259.629 14.502C260.718 13.438 262.061 12.602 263.657 11.994C265.253 11.3607 267.14 11.044 269.319 11.044C271.143 11.044 272.714 11.272 274.031 11.728C275.348 12.184 276.45 12.7667 277.337 13.476C278.224 14.16 278.933 14.882 279.465 15.642C279.997 16.402 280.377 17.1113 280.605 17.77C280.833 18.4287 280.947 18.9227 280.947 19.252C280.947 19.6067 280.732 19.86 280.301 20.012L275.665 21.646C275.412 21.7473 275.184 21.798 274.981 21.798C274.677 21.798 274.525 21.6713 274.525 21.418C274.525 21.3673 274.538 21.1773 274.563 20.848C274.588 20.5187 274.601 20.2907 274.601 20.164C274.601 19.252 274.436 18.3273 274.107 17.39C273.778 16.4527 273.208 15.6673 272.397 15.034C271.586 14.3753 270.459 14.046 269.015 14.046C267.647 14.046 266.494 14.3753 265.557 15.034C264.645 15.6927 263.91 16.554 263.353 17.618C262.796 18.682 262.39 19.8093 262.137 21C261.909 22.1907 261.795 23.318 261.795 24.382C261.795 26.8393 262.086 29.0053 262.669 30.88C263.252 32.7293 264.151 34.186 265.367 35.25C266.608 36.2887 268.166 36.808 270.041 36.808C271.916 36.808 273.448 36.4787 274.639 35.82C275.855 35.1613 276.818 34.3633 277.527 33.426C278.262 32.4633 278.832 31.526 279.237 30.614C279.389 30.2847 279.604 30.12 279.883 30.12C280.01 30.12 280.174 30.1707 280.377 30.272L281.707 30.88ZM303.055 32.97C303.055 33.882 303.194 34.7053 303.473 35.44C303.752 36.1493 304.36 36.5673 305.297 36.694C305.601 36.7193 305.753 36.884 305.753 37.188V38.442C305.753 38.7967 305.563 38.974 305.183 38.974C303.942 38.974 302.903 39.05 302.067 39.202C301.256 39.3287 300.547 39.506 299.939 39.734C299.356 39.9367 298.774 40.1647 298.191 40.418C298.09 40.4687 298.001 40.494 297.925 40.494H297.811C297.76 40.494 297.735 40.4433 297.735 40.342C297.735 40.2407 297.76 40 297.811 39.62C297.862 39.2147 297.912 38.7713 297.963 38.29C298.039 37.7833 298.102 37.3527 298.153 36.998C298.026 37.3273 297.748 37.7707 297.317 38.328C296.912 38.8853 296.304 39.392 295.493 39.848C294.708 40.2787 293.669 40.494 292.377 40.494C291.516 40.494 290.591 40.3167 289.603 39.962C288.64 39.6073 287.728 39.0373 286.867 38.252C286.006 37.4667 285.296 36.4407 284.739 35.174C284.207 33.882 283.941 32.3113 283.941 30.462C283.941 28.106 284.359 26.206 285.195 24.762C286.056 23.2927 287.158 22.216 288.501 21.532C289.869 20.848 291.313 20.506 292.833 20.506C294.074 20.506 295.214 20.696 296.253 21.076C297.292 21.456 298.204 22.0007 298.989 22.71C299.648 22.4313 300.205 22.178 300.661 21.95C301.142 21.6967 301.548 21.4433 301.877 21.19C302.004 21.0887 302.13 20.9873 302.257 20.886C302.409 20.7847 302.574 20.6833 302.751 20.582C302.827 20.5313 302.89 20.506 302.941 20.506H302.979C303.03 20.506 303.055 20.5313 303.055 20.582V32.97ZM297.735 27.004C297.659 26.4973 297.469 25.94 297.165 25.332C296.886 24.6987 296.456 24.1667 295.873 23.736C295.29 23.28 294.505 23.052 293.517 23.052C292.301 23.052 291.351 23.356 290.667 23.964C289.983 24.5467 289.502 25.3067 289.223 26.244C288.97 27.1813 288.843 28.182 288.843 29.246C288.843 31.678 289.324 33.6033 290.287 35.022C291.275 36.4407 292.542 37.15 294.087 37.15C294.999 37.15 295.708 36.96 296.215 36.58C296.747 36.1747 297.127 35.7693 297.355 35.364C297.583 34.9587 297.71 34.718 297.735 34.642V27.004ZM345.002 37.72C345.382 37.72 345.572 37.91 345.572 38.29V39.43C345.572 39.81 345.382 40 345.002 40H334.286C333.906 40 333.716 39.81 333.716 39.43V38.29C333.716 37.91 333.906 37.72 334.286 37.72H334.476C335.286 37.72 335.818 37.4287 336.072 36.846C336.325 36.238 336.452 35.326 336.452 34.11V27.612C336.452 26.928 336.388 26.3073 336.262 25.75C336.16 25.1673 335.907 24.7113 335.502 24.382C335.122 24.0273 334.526 23.85 333.716 23.85C332.626 23.85 331.664 24.192 330.828 24.876C330.017 25.56 329.333 26.4213 328.776 27.46V34.11C328.776 35.5033 328.991 36.4533 329.422 36.96C329.878 37.4667 330.473 37.72 331.208 37.72H331.512C331.892 37.72 332.082 37.91 332.082 38.29V39.43C332.082 39.81 331.892 40 331.512 40H321.176C320.796 40 320.606 39.81 320.606 39.43V38.29C320.606 37.91 320.796 37.72 321.176 37.72H321.442C321.974 37.72 322.442 37.4667 322.848 36.96C323.253 36.4533 323.456 35.5033 323.456 34.11V27.612C323.456 26.396 323.291 25.4713 322.962 24.838C322.658 24.1793 321.91 23.85 320.72 23.85C320.086 23.85 319.453 24.0147 318.82 24.344C318.186 24.648 317.629 25.0533 317.148 25.56C316.666 26.0413 316.312 26.5607 316.084 27.118V34.11C316.084 35.1233 316.299 35.9847 316.73 36.694C317.186 37.378 317.781 37.72 318.516 37.72H318.592C318.972 37.72 319.162 37.91 319.162 38.29V39.43C319.162 39.81 318.972 40 318.592 40H307.914C307.534 40 307.344 39.81 307.344 39.43V38.29C307.344 37.91 307.534 37.72 307.914 37.72H307.99C308.927 37.72 309.624 37.378 310.08 36.694C310.536 35.9847 310.764 35.1233 310.764 34.11V29.322C310.764 28.638 310.713 27.9793 310.612 27.346C310.536 26.7127 310.333 26.1807 310.004 25.75C309.7 25.294 309.193 25.028 308.484 24.952C308.205 24.9267 308.066 24.762 308.066 24.458V23.166C308.066 22.9127 308.243 22.748 308.598 22.672C310.422 22.3933 311.98 21.9627 313.272 21.38C314.589 20.7973 315.501 20.3287 316.008 19.974C316.134 19.8727 316.236 19.822 316.312 19.822H316.35C316.4 19.822 316.426 19.8473 316.426 19.898C316.426 19.9487 316.413 20.05 316.388 20.202L315.742 24.876C316.096 24.2933 316.565 23.6727 317.148 23.014C317.73 22.33 318.452 21.7473 319.314 21.266C320.175 20.7593 321.176 20.506 322.316 20.506C324.19 20.506 325.584 20.8607 326.496 21.57C327.408 22.254 328.028 23.1407 328.358 24.23C329.219 23.1153 330.22 22.216 331.36 21.532C332.525 20.848 333.855 20.506 335.35 20.506C336.718 20.506 337.82 20.7213 338.656 21.152C339.517 21.5573 340.176 22.1147 340.632 22.824C341.088 23.508 341.392 24.2933 341.544 25.18C341.721 26.0413 341.81 26.928 341.81 27.84V34.11C341.81 35.1233 342.038 35.9847 342.494 36.694C342.975 37.378 343.672 37.72 344.584 37.72H345.002Z" fill="#EAE7E4"/>
<defs>
<filter id="filter0_dd_1980_75" x="0" y="0.460571" width="95.2599" height="53.0789" filterUnits="userSpaceOnUse" color-interpolation-filters="sRGB">
<feFlood flood-opacity="0" result="BackgroundImageFix"/>
<feColorMatrix in="SourceAlpha" type="matrix" values="0 0 0 0 0 0 0 0 0 0 0 0 0 0 0 0 0 0 127 0" result="hardAlpha"/>
<feOffset dx="7"/>
<feComposite in2="hardAlpha" operator="out"/>
<feColorMatrix type="matrix" values="0 0 0 0 0.968627 0 0 0 0 0 0 0 0 0 0.306732 0 0 0 0.25 0"/>
<feBlend mode="normal" in2="BackgroundImageFix" result="effect1_dropShadow_1980_75"/>
<feColorMatrix in="SourceAlpha" type="matrix" values="0 0 0 0 0 0 0 0 0 0 0 0 0 0 0 0 0 0 127 0" result="hardAlpha"/>
<feOffset dx="-7"/>
<feComposite in2="hardAlpha" operator="out"/>
<feColorMatrix type="matrix" values="0 0 0 0 0 0 0 0 0 0.866667 0 0 0 0 0.388235 0 0 0 0.33 0"/>
<feBlend mode="normal" in2="effect1_dropShadow_1980_75" result="effect2_dropShadow_1980_75"/>
<feBlend mode="normal" in="SourceGraphic" in2="effect2_dropShadow_1980_75" result="shape"/>
</filter>
</defs>
</svg>
